<?xml version="1.0" standalone="no"?><!DOCTYPE svg PUBLIC "-//W3C//DTD SVG 1.1//EN" "http://www.w3.org/Graphics/SVG/1.1/DTD/svg11.dtd"><svg t="1676446362703" class="icon" viewBox="0 0 1024 1024" version="1.1" xmlns="http://www.w3.org/2000/svg" p-id="1376" xmlns:xlink="http://www.w3.org/1999/xlink" width="200" height="200"><path d="M451.8912 758.6304a335.2064 335.2064 0 0 0 293.5296-174.08h29.5936a167.8336 167.8336 0 0 0 11.776-335.2576v-16.4864a76.8 76.8 0 0 0-76.544-76.4928H193.536a76.8 76.8 0 0 0-76.544 76.4928v190.9248a335.2576 335.2576 0 0 0 334.8992 334.8992z m434.688-341.7088a111.6672 111.6672 0 0 1-111.5648 111.5136h-5.12a334.2336 334.2336 0 0 0 16.8448-104.704v-117.76a111.7696 111.7696 0 0 1 99.84 110.9504z m-713.2672-184.32a20.48 20.48 0 0 1 20.224-20.1728h516.7104a20.48 20.48 0 0 1 20.224 20.1728v191.1296a278.5792 278.5792 0 0 1-557.1584 0zM174.08 816.7936a28.16 28.16 0 1 0 0 56.32h622.0288a28.16 28.16 0 0 0 0-56.32z" fill="#4f68b0" p-id="1377"></path></svg>